<svg width="96" height="31" viewBox="0 0 96 31" fill="none" xmlns="http://www.w3.org/2000/svg">
<path d="M72.2761 15.7402C71.8654 15.7402 71.5281 15.6082 71.2641 15.3442C71.0294 15.0508 70.9121 14.6842 70.9121 14.2442C70.9121 13.3348 71.3668 12.8802 72.2761 12.8802H73.2001C73.5814 12.8802 73.8308 12.7775 73.9481 12.5722C74.0654 12.3668 74.1241 12.1322 74.1241 11.8682V9.14016C74.1241 8.78816 74.0654 8.52416 73.9481 8.34816C73.8601 8.17216 73.6108 8.08416 73.2001 8.08416H72.4081C71.9974 8.08416 71.6601 7.95216 71.3961 7.68816C71.1321 7.42416 71.0001 7.08682 71.0001 6.67616C71.0001 6.26549 71.1321 5.92816 71.3961 5.66416C71.6601 5.37082 71.9974 5.22416 72.4081 5.22416H84.1561C84.5668 5.22416 84.9041 5.37082 85.1681 5.66416C85.4614 5.92816 85.6081 6.26549 85.6081 6.67616C85.6081 7.08682 85.4614 7.42416 85.1681 7.68816C84.9041 7.95216 84.5668 8.08416 84.1561 8.08416H83.4081C82.8508 8.08416 82.5721 8.42149 82.5721 9.09616V11.8682C82.5721 12.5428 82.8508 12.8802 83.4081 12.8802H84.3321C84.7134 12.8802 85.0361 13.0122 85.3001 13.2762C85.5934 13.5108 85.7401 13.8335 85.7401 14.2442C85.7401 14.6842 85.5934 15.0508 85.3001 15.3442C85.0361 15.6082 84.6988 15.7402 84.2881 15.7402H72.2761ZM90.3161 27.4442C89.7588 26.9455 89.2894 26.7108 88.9081 26.7402C88.5268 26.7988 88.0721 27.0628 87.5441 27.5322L84.4641 30.2162C84.1121 30.5095 83.7308 30.6122 83.3201 30.5242C82.9094 30.4655 82.5868 30.3188 82.3521 30.0842C82.0294 29.7615 81.8974 29.3655 81.9561 28.8962C82.0148 28.4562 82.1908 28.1335 82.4841 27.9282C84.1268 26.8135 85.3734 25.7868 86.2241 24.8482C87.0748 23.9388 87.4708 22.7362 87.4121 21.2402C87.4121 20.8295 87.5588 20.4922 87.8521 20.2282C88.1454 19.9642 88.4974 19.8322 88.9081 19.8322C89.3188 19.8322 89.6708 19.9642 89.9641 20.2282C90.2868 20.4922 90.4334 20.8295 90.4041 21.2402C90.3454 22.2375 90.4774 23.0735 90.8001 23.7482C91.1521 24.4228 91.6948 25.0535 92.4281 25.6402C93.1908 26.2562 94.1294 26.9602 95.2441 27.7522C95.5374 27.9868 95.6988 28.3242 95.7281 28.7642C95.7574 29.2042 95.6108 29.5855 95.2881 29.9082C95.0241 30.1722 94.6721 30.3042 94.2321 30.3042C93.8214 30.3042 93.4548 30.1722 93.1321 29.9082L90.3161 27.4442ZM90.9321 17.8522C90.9321 18.2628 90.8001 18.6148 90.5361 18.9082C90.3014 19.2015 89.9788 19.3482 89.5681 19.3482C89.1574 19.3482 88.8054 19.2015 88.5121 18.9082C88.2481 18.6148 88.1161 18.2628 88.1161 17.8522V13.0122C88.1161 12.6015 88.0428 12.2788 87.8961 12.0442C87.7788 11.7802 87.4414 11.6482 86.8841 11.6482H85.4761C84.5374 11.6482 84.0681 11.2082 84.0681 10.3282C84.0681 9.94682 84.1854 9.62416 84.4201 9.36016C84.6548 9.09616 85.0068 8.96416 85.4761 8.96416H86.8841C87.5001 8.96416 87.8521 8.81749 87.9401 8.52416C88.0574 8.23082 88.1161 7.89349 88.1161 7.51216V5.66416C88.1161 5.51749 88.1894 5.25349 88.3361 4.87216C88.5121 4.46149 88.9228 4.24149 89.5681 4.21216C90.4774 4.21216 90.9321 4.69616 90.9321 5.66416V17.8522ZM95.7721 18.0722C95.7721 18.4828 95.6254 18.8348 95.3321 19.1282C95.0681 19.4215 94.7308 19.5682 94.3201 19.5682C93.9094 19.5682 93.5574 19.4215 93.2641 19.1282C93.0001 18.8348 92.8681 18.4828 92.8681 18.0722V5.66416C92.8681 5.51749 92.9414 5.25349 93.0881 4.87216C93.2641 4.46149 93.6748 4.24149 94.3201 4.21216C94.7601 4.21216 95.1121 4.34416 95.3761 4.60816C95.6401 4.87216 95.7721 5.22416 95.7721 5.66416V18.0722ZM79.9321 9.22816C79.9321 8.81749 79.8588 8.52416 79.7121 8.34816C79.5654 8.17216 79.2721 8.08416 78.8321 8.08416H77.8641C77.4241 8.08416 77.1308 8.18682 76.9841 8.39216C76.8374 8.56816 76.7641 8.83216 76.7641 9.18416V11.9122C76.7641 12.2055 76.8374 12.4548 76.9841 12.6602C77.1308 12.8362 77.4241 12.9242 77.8641 12.9242H78.8321C79.3014 12.9242 79.5948 12.8215 79.7121 12.6162C79.8588 12.4108 79.9321 12.1762 79.9321 11.9122V9.22816Z" fill="#0EA5E9"/>
<path d="M50.2217 10.1962C50.2217 9.11082 50.4857 8.15749 51.0137 7.33616C51.5417 6.51483 52.2457 5.86949 53.1257 5.40016C54.0057 4.93082 54.959 4.69616 55.9857 4.69616C57.0417 4.69616 58.0097 4.93082 58.8897 5.40016C59.7697 5.86949 60.4737 6.51483 61.0017 7.33616C61.5297 8.15749 61.7937 9.11082 61.7937 10.1962C61.7937 11.2522 61.5297 12.2055 61.0017 13.0562C60.4737 13.8775 59.7697 14.5228 58.8897 14.9922C58.0097 15.4615 57.0417 15.6962 55.9857 15.6962C54.959 15.6962 54.0057 15.4615 53.1257 14.9922C52.2457 14.5228 51.5417 13.8775 51.0137 13.0562C50.4857 12.2055 50.2217 11.2522 50.2217 10.1962ZM64.8737 5.66416C64.8737 5.22416 65.0057 4.87216 65.2697 4.60816C65.563 4.34416 65.9297 4.21216 66.3697 4.21216C67.0443 4.24149 67.455 4.46149 67.6017 4.87216C67.7483 5.25349 67.8217 5.51749 67.8217 5.66416V17.8522C67.8217 18.2628 67.675 18.6148 67.3817 18.9082C67.1177 19.2015 66.7803 19.3482 66.3697 19.3482C65.959 19.3482 65.607 19.2015 65.3137 18.9082C65.0203 18.6148 64.8737 18.2628 64.8737 17.8522V5.66416ZM53.1257 10.1962C53.1257 11.0175 53.4043 11.6922 53.9617 12.2202C54.5483 12.7188 55.223 12.9682 55.9857 12.9682C56.7777 12.9682 57.4523 12.7188 58.0097 12.2202C58.567 11.6922 58.8457 11.0175 58.8457 10.1962C58.8457 9.34549 58.567 8.67082 58.0097 8.17216C57.4523 7.67349 56.7777 7.42416 55.9857 7.42416C55.223 7.42416 54.5483 7.67349 53.9617 8.17216C53.4043 8.67082 53.1257 9.34549 53.1257 10.1962Z" fill="#0EA5E9"/>
<path d="M30.42 15.7401C29.716 15.7401 29.1293 15.5201 28.66 15.0801C28.22 14.6401 28 14.0534 28 13.3201V7.64408C28 6.94008 28.22 6.36808 28.66 5.92808C29.1293 5.45874 29.716 5.22408 30.42 5.22408H36.36C37.1227 5.22408 37.724 5.45874 38.164 5.92808C38.604 6.36808 38.824 6.94008 38.824 7.64408V13.3201C38.824 14.0534 38.604 14.6401 38.164 15.0801C37.724 15.5201 37.1227 15.7401 36.36 15.7401H30.42ZM41.948 5.53208C41.948 5.09208 42.08 4.74008 42.344 4.47608C42.6373 4.21208 43.004 4.08008 43.444 4.08008C43.972 4.08008 44.3387 4.22674 44.544 4.52008C44.7787 4.78408 44.896 5.12141 44.896 5.53208V8.08408C44.896 8.46541 44.9547 8.80274 45.072 9.09608C45.2187 9.38941 45.6 9.53608 46.216 9.53608H47.712C48.2107 9.53608 48.5627 9.68274 48.768 9.97608C49.0027 10.2694 49.12 10.5774 49.12 10.9001C49.12 11.7801 48.6507 12.2201 47.712 12.2201H46.216C45.6587 12.2201 45.292 12.3521 45.116 12.6161C44.9693 12.8507 44.896 13.1734 44.896 13.5841V17.9401C44.896 18.3507 44.7493 18.7027 44.456 18.9961C44.192 19.2894 43.8547 19.4361 43.444 19.4361C43.0333 19.4361 42.6813 19.2894 42.388 18.9961C42.0947 18.7027 41.948 18.3507 41.948 17.9401V5.53208ZM30.86 11.2081C30.86 11.7361 30.948 12.1761 31.124 12.5281C31.3 12.8507 31.696 13.0121 32.312 13.0121H34.336C34.9813 13.0121 35.392 12.8507 35.568 12.5281C35.7733 12.1761 35.876 11.7361 35.876 11.2081V9.62408C35.876 9.18408 35.7733 8.80274 35.568 8.48008C35.392 8.15741 34.9667 7.99608 34.292 7.99608H32.4C31.784 7.99608 31.3733 8.17208 31.168 8.52408C30.9627 8.84674 30.86 9.21341 30.86 9.62408V11.2081Z" fill="#0EA5E9"/>
<g clip-path="url(#clip0_274_963)">
<path fill-rule="evenodd" clip-rule="evenodd" d="M2.35849 13.8144C2.31574 12.8229 2.7705 11.741 3.70382 11.2939C4.37047 10.9725 5.14984 10.9085 5.87209 11.0318C7.23734 11.401 8.30642 12.4397 9.09193 13.5704C9.47705 14.1079 9.81668 14.7066 9.87083 15.3789C9.97404 16.1598 9.64675 16.9596 9.05432 17.4747C8.3392 18.3072 7.13057 18.6294 6.08407 18.3285C5.46613 18.1631 4.87189 17.8765 4.41727 17.4205C3.38586 16.4764 2.49184 15.2442 2.35849 13.8144Z" fill="#0EA5E9"/>
<path fill-rule="evenodd" clip-rule="evenodd" d="M8.53763 4.34133C8.53763 4.34133 10.0273 3.85506 11.478 5.47545C11.478 5.47545 12.4529 6.51506 12.8848 8.46639C12.8848 8.46639 13.4866 10.3752 12.6104 11.5272C12.6104 11.5272 11.5336 13.4369 9.13667 12.1486C9.13667 12.1486 7.46096 11.2404 6.59737 9.45546C6.59737 9.45546 5.68717 7.61553 6.50024 6.06161C6.50024 6.06161 7.20112 4.77659 8.53763 4.34133Z" fill="#0EA5E9"/>
<path fill-rule="evenodd" clip-rule="evenodd" d="M15.9406 2.19428C15.9406 2.19428 17.9491 2.12342 18.4444 4.27144C18.4444 4.27144 19.1054 5.90917 18.6188 7.76322C18.6188 7.76322 18.2378 9.97686 16.9675 10.6256C16.9675 10.6256 15.6416 11.5749 13.8187 9.67243C13.8187 9.67243 12.2001 7.36348 12.8102 5.2427C12.8102 5.2427 13.3409 2.22148 15.9406 2.19428Z" fill="#0EA5E9"/>
<path fill-rule="evenodd" clip-rule="evenodd" d="M21.7143 5.97387C22.6597 5.94921 23.5414 6.57429 23.9105 7.42796C24.2565 8.19032 24.3333 9.0469 24.3126 9.87523C24.2383 11.101 23.7702 12.3069 22.9859 13.2559C22.3728 13.9122 21.3819 14.0505 20.5448 13.8225C20.2199 13.7821 19.9647 13.5857 19.752 13.3498C18.9946 12.5976 18.5639 11.5184 18.6684 10.4492C18.7269 9.45562 18.8601 8.41709 19.3937 7.5533C19.7852 6.85919 20.3797 6.20074 21.1904 6.021C21.362 5.98248 21.5386 5.96701 21.7143 5.97387Z" fill="#0EA5E9"/>
</g>
<path fill-rule="evenodd" clip-rule="evenodd" d="M13.4125 12.0193C14.6716 11.7565 16.1922 11.5498 17.2212 12.5041C17.4024 12.6426 17.5807 12.7859 17.759 12.9293C18.2663 13.337 18.7744 13.7454 19.354 14.0473C20.5605 14.2238 21.7981 14.5062 22.839 15.1589C24.2306 16.2344 24.61 18.3124 23.934 19.8891C23.0911 21.3964 21.5323 22.5284 19.7825 22.6575C19.4581 22.6983 19.1224 22.7042 18.7857 22.7102C17.9807 22.7245 17.1696 22.7389 16.4923 23.229C16.2949 23.3624 16.1005 23.5032 15.9056 23.6444L15.9056 23.6445C15.2116 24.1473 14.5122 24.654 13.6563 24.8374C12.6401 25.1382 11.5753 24.9491 10.566 24.7385C9.37042 24.4367 8.375 23.5025 8.05175 22.3095C7.46965 20.5508 8.31097 18.6518 9.54807 17.3827C10.0829 16.8617 10.6406 16.3034 10.7154 15.517C10.7395 15.3844 10.7612 15.248 10.7832 15.11L10.7832 15.11L10.7832 15.11L10.7832 15.11C10.916 14.2749 11.0586 13.3783 11.8078 12.8716C12.2857 12.4936 12.8396 12.2214 13.4125 12.0193Z" fill="#0EA5E9"/>
<defs>
<clipPath id="clip0_274_963">
<rect width="22.6468" height="21.137" fill="white" transform="translate(0 7.15747) rotate(-18.424)"/>
</clipPath>
</defs>
</svg>
