<svg width="97" height="40" viewBox="0 0 97 40" fill="none" xmlns="http://www.w3.org/2000/svg">
<g clip-path="url(#clip0_86_737)">
<path fill-rule="evenodd" clip-rule="evenodd" d="M16.6164 18.0264C18.1813 17.7088 20.0704 17.4627 21.3412 18.6545C22.2023 19.3203 23.0084 20.073 23.9782 20.5848C25.4747 20.8123 27.0091 21.1713 28.2967 21.9888C30.0168 23.3333 30.4734 25.9156 29.6235 27.8682C28.5667 29.7335 26.6239 31.128 24.4509 31.2762C23.0846 31.4402 21.5599 31.1068 20.3625 31.9631C19.2408 32.7119 18.1934 33.6562 16.831 33.9402C15.5674 34.3067 14.2469 34.0646 12.9954 33.7962C11.5134 33.4134 10.2841 32.2468 9.89101 30.7636C9.18051 28.5764 10.238 26.2248 11.7824 24.6579C12.4499 24.0147 13.1461 23.3255 13.2443 22.3498C13.4618 21.1902 13.5307 19.8004 14.6186 19.0735C15.2144 18.6075 15.9039 18.2734 16.6164 18.0264Z" fill="#0EA5E9"/>
<path fill-rule="evenodd" clip-rule="evenodd" d="M2.88169 20.1787C2.83544 18.9475 3.40741 17.6077 4.56908 17.0591C5.39886 16.6647 6.36679 16.5906 7.26252 16.7487C8.95477 17.2164 10.2748 18.5131 11.2421 19.9221C11.7165 20.592 12.134 21.3376 12.1966 22.1725C12.3193 23.1426 11.9075 24.1332 11.1685 24.7686C10.2751 25.797 8.77251 26.1888 7.47549 25.808C6.70953 25.5984 5.97382 25.2385 5.4126 24.6694C4.13874 23.4903 3.0374 21.9546 2.88169 20.1787Z" fill="#0EA5E9"/>
<path fill-rule="evenodd" clip-rule="evenodd" d="M10.6175 8.46158C10.6175 8.46158 12.4701 7.86818 14.2598 9.88967C14.2598 9.88967 15.4629 11.1869 15.9856 13.6122C15.9856 13.6122 16.7194 15.9859 15.6238 17.4099C15.6238 17.4099 14.274 19.7731 11.3074 18.1574C11.3074 18.1574 9.23347 17.0185 8.17371 14.7968C8.17371 14.7968 7.05646 12.5065 8.07647 10.5831C8.07647 10.5831 8.95536 8.9927 10.6175 8.46158Z" fill="#0EA5E9"/>
<path fill-rule="evenodd" clip-rule="evenodd" d="M19.8223 5.8472C19.8223 5.8472 22.3161 5.77305 22.9162 8.44295C22.9162 8.44295 23.7254 10.4805 23.1086 12.7787C23.1086 12.7787 22.6205 15.5241 21.0391 16.3207C21.0391 16.3207 19.3866 17.49 17.1368 15.1158C17.1368 15.1158 15.1434 12.2384 15.9153 9.6099C15.9153 9.6099 16.5949 5.86309 19.8223 5.8472Z" fill="#0EA5E9"/>
<path fill-rule="evenodd" clip-rule="evenodd" d="M26.9634 10.5787C28.1373 10.5546 29.2274 11.3366 29.6798 12.3989C30.1041 13.3476 30.1935 14.4115 30.1621 15.4396C30.0614 16.9608 29.472 18.4545 28.4919 19.6272C27.7264 20.4377 26.4953 20.6025 25.4577 20.3137C25.0547 20.2614 24.7392 20.0157 24.4768 19.7215C23.5417 18.7826 23.0145 17.4398 23.1516 16.1133C23.231 14.8803 23.4035 13.592 24.0719 12.5234C24.5626 11.6644 25.3052 10.8512 26.3127 10.6336C26.526 10.587 26.7454 10.569 26.9634 10.5787Z" fill="#0EA5E9"/>
</g>
<path d="M38.7322 24.344L38.5722 24.184L38.4442 23.896L37.7082 23.608V22.712C37.7082 22.6907 37.7189 22.6267 37.7402 22.52C37.7829 22.392 37.8149 22.264 37.8362 22.136C37.8789 22.008 37.9109 21.8907 37.9322 21.784C37.9749 21.6773 37.9962 21.6027 37.9962 21.56V21.272C37.9962 20.9733 38.0176 20.7173 38.0602 20.504C38.1029 20.2907 38.1562 20.0987 38.2202 19.928C38.2842 19.7573 38.3376 19.5973 38.3802 19.448C38.4229 19.2773 38.4442 19.096 38.4442 18.904V18.616C38.4442 18.5307 38.4656 18.3813 38.5082 18.168C38.5509 17.9547 38.5722 17.8053 38.5722 17.72V17.144C38.5722 17.1227 38.5829 17.0373 38.6042 16.888C38.6469 16.7387 38.6789 16.5893 38.7002 16.44C38.7429 16.2693 38.7749 16.1093 38.7962 15.96C38.8389 15.8107 38.8602 15.7147 38.8602 15.672V15.384C38.8602 15.2987 38.8816 15.1067 38.9242 14.808C38.9882 14.488 39.0202 14.2853 39.0202 14.2L39.1802 14.072H40.2362C40.4069 14.072 40.5562 14.1253 40.6842 14.232C40.8336 14.3387 40.9616 14.456 41.0682 14.584C41.1749 14.712 41.2602 14.84 41.3242 14.968C41.3882 15.0747 41.4309 15.1387 41.4522 15.16L41.5482 15.384C41.5482 15.4693 41.5162 15.6507 41.4522 15.928C41.4096 16.184 41.3882 16.344 41.3882 16.408V16.856L42.4122 15.832C42.5189 15.7893 42.6469 15.7253 42.7962 15.64C42.9456 15.5547 43.0629 15.4693 43.1482 15.384L43.4362 15.224L43.9802 14.52C44.0229 14.4773 44.1082 14.4133 44.2362 14.328C44.3642 14.2427 44.4816 14.2 44.5882 14.2H44.7482L44.9082 14.488C44.9722 14.488 45.0576 14.4667 45.1642 14.424C45.2922 14.3813 45.3989 14.36 45.4842 14.36H45.6442L45.9322 14.488C45.9962 14.488 46.0816 14.552 46.1882 14.68C46.2949 14.7867 46.3482 14.872 46.3482 14.936L46.5082 15.224L46.6682 15.384L46.3482 16.28V17.432C46.3482 17.4747 46.3376 17.528 46.3162 17.592C46.3162 17.656 46.3056 17.7413 46.2842 17.848L46.2202 18.168C46.2202 18.2533 46.1882 18.456 46.1242 18.776C46.0816 19.0747 46.0602 19.2667 46.0602 19.352L45.9322 19.928V20.952C45.9322 21.0373 45.8789 21.1867 45.7722 21.4C45.6869 21.6133 45.6442 21.7627 45.6442 21.848V22.008C45.6442 22.072 45.5909 22.168 45.4842 22.296C45.3776 22.4027 45.3242 22.4987 45.3242 22.584L45.1962 22.712L45.3242 22.872C45.3242 22.8933 45.3456 22.9893 45.3882 23.16L45.4842 23.32C45.4842 23.3627 45.4629 23.448 45.4202 23.576C45.3989 23.704 45.3669 23.8427 45.3242 23.992C45.3029 24.12 45.2709 24.248 45.2282 24.376C45.2069 24.504 45.1962 24.5893 45.1962 24.632H44.3002L44.1722 24.504L43.8522 24.344H41.0682C41.0256 24.344 40.9509 24.3333 40.8442 24.312C40.7376 24.2907 40.6202 24.28 40.4922 24.28C40.3642 24.2587 40.2362 24.2373 40.1082 24.216C40.0016 24.1947 39.9376 24.184 39.9162 24.184H39.7562C39.7136 24.2267 39.6816 24.28 39.6602 24.344C39.6389 24.3867 39.6069 24.4293 39.5642 24.472L39.4682 24.632H39.3082C39.2442 24.632 39.1482 24.6107 39.0202 24.568C38.8922 24.5253 38.7962 24.504 38.7322 24.504V24.344ZM49.8362 27.704C49.7082 27.8107 49.6442 27.9173 49.6442 28.024V28.056H49.2922V28.024C49.2922 27.9813 49.2709 27.9493 49.2282 27.928C49.2069 27.928 49.1749 27.9067 49.1322 27.864L48.9722 27.96C48.9722 27.9813 48.9509 27.992 48.9082 27.992C48.6949 27.992 48.5349 27.896 48.4282 27.704C48.3429 27.512 48.3002 27.3307 48.3002 27.16C48.3002 26.8613 48.3002 26.5733 48.3002 26.296C48.3216 25.9973 48.3749 25.6453 48.4602 25.24C48.4602 25.1547 48.4922 24.9627 48.5562 24.664C48.6202 24.3653 48.6842 24.0667 48.7482 23.768C48.8336 23.448 48.9082 23.1707 48.9722 22.936C49.0362 22.7013 49.0682 22.616 49.0682 22.68L49.1322 22.104C49.0469 21.8907 49.0042 21.656 49.0042 21.4C49.0256 21.144 49.0362 20.9947 49.0362 20.952C49.0362 20.7173 49.0682 20.504 49.1322 20.312C49.1962 20.12 49.2282 19.9493 49.2282 19.8L49.1322 19.704L49.3242 19.544C49.3242 19.4587 49.3136 19.4267 49.2922 19.448C49.2922 19.448 49.2709 19.4267 49.2282 19.384C49.3349 19.32 49.3882 19.1707 49.3882 18.936L49.3242 18.776C49.3669 18.776 49.3882 18.744 49.3882 18.68C49.4096 18.5947 49.4416 18.52 49.4842 18.456H49.3882C49.3882 17.688 49.4096 17.0587 49.4522 16.568C49.4949 16.056 49.5482 15.6293 49.6122 15.288C49.6762 14.9253 49.7296 14.6053 49.7722 14.328C49.8149 14.0293 49.8362 13.6987 49.8362 13.336C49.8362 13.1653 49.8896 13.048 49.9962 12.984C50.1029 12.92 50.1562 12.8453 50.1562 12.76L49.9962 12.824C49.9962 12.7387 50.0496 12.664 50.1562 12.6C50.2842 12.5147 50.3482 12.4293 50.3482 12.344L50.4122 12.408C50.4549 12.3653 50.4869 12.3227 50.5082 12.28C50.5296 12.2373 50.5616 12.1947 50.6042 12.152C50.7749 12.152 50.8709 12.184 50.8922 12.248C50.9349 12.312 51.0096 12.3653 51.1162 12.408H52.1082L52.3002 12.504L52.4602 12.408L52.7162 12.504L52.8762 12.408C52.9829 12.4293 53.0362 12.4827 53.0362 12.568C53.0362 12.6747 52.9829 12.7813 52.8762 12.888C52.7696 12.9733 52.7162 13.0693 52.7162 13.176L52.8122 13.272C52.8122 13.464 52.8016 13.5707 52.7802 13.592C52.7802 13.6133 52.7589 13.6453 52.7162 13.688C52.7162 13.7307 52.7482 13.784 52.8122 13.848C52.8122 14.0187 52.8016 14.1147 52.7802 14.136C52.7802 14.136 52.7589 14.1573 52.7162 14.2C52.7162 14.2427 52.7482 14.296 52.8122 14.36C52.7909 14.488 52.7696 14.6587 52.7482 14.872C52.7482 15.064 52.7056 15.1813 52.6202 15.224L52.7162 15.288C52.7162 15.3733 52.6842 15.4587 52.6202 15.544L52.8122 15.64C52.8122 15.6827 52.7696 15.7467 52.6842 15.832C52.5989 15.9173 52.5562 16.0453 52.5562 16.216L52.6202 16.312V16.44C52.6202 16.568 52.5989 16.7387 52.5562 16.952C52.5136 17.1653 52.4602 17.3787 52.3962 17.592C52.3536 17.8053 52.3109 18.008 52.2682 18.2C52.2256 18.392 52.2042 18.5307 52.2042 18.616L52.3002 18.712L52.2682 18.744C52.3109 18.744 52.4282 18.712 52.6202 18.648C52.8336 18.5627 53.1216 18.52 53.4842 18.52C53.5482 18.52 53.7296 18.4667 54.0282 18.36C54.3269 18.2533 54.5936 18.2 54.8282 18.2C55.3829 18.2 55.7882 18.2107 56.0442 18.232C56.3002 18.232 56.4389 18.3067 56.4602 18.456C56.3749 18.6053 56.3002 18.7547 56.2362 18.904C56.1936 19.032 56.0656 19.1067 55.8522 19.128L56.0122 19.192C56.0336 19.2347 56.0442 19.256 56.0442 19.256C56.0442 19.2987 56.0016 19.3307 55.9162 19.352C55.8522 19.3733 55.7669 19.3947 55.6602 19.416C55.5749 19.416 55.4896 19.4373 55.4042 19.48C55.3402 19.5227 55.3082 19.576 55.3082 19.64V19.704C55.3082 19.768 55.2549 19.832 55.1482 19.896C55.0629 19.9387 54.9669 19.9813 54.8602 20.024C54.7536 20.0667 54.6469 20.1093 54.5402 20.152C54.4549 20.1733 54.4122 20.1947 54.4122 20.216C54.3482 20.216 54.2949 20.216 54.2522 20.216C54.2309 20.1947 54.1989 20.1733 54.1562 20.152C54.0282 20.152 53.8469 20.1733 53.6122 20.216C53.3989 20.2373 53.1856 20.28 52.9722 20.344C52.7589 20.3867 52.5669 20.4293 52.3962 20.472C52.2256 20.5147 52.1296 20.5467 52.1082 20.568C52.1082 20.6533 52.1082 20.696 52.1082 20.696C52.1296 20.6747 52.1616 20.6853 52.2042 20.728C52.1616 20.92 52.1189 21.08 52.0762 21.208C52.0549 21.3147 52.0229 21.4213 51.9802 21.528C51.9589 21.6133 51.9269 21.7093 51.8842 21.816C51.8416 21.9013 51.7776 22.0187 51.6922 22.168L51.7882 22.264L51.7242 22.328C51.7029 22.3493 51.6922 22.3813 51.6922 22.424C51.6922 22.5947 51.5962 22.712 51.4042 22.776C51.2336 22.84 51.1376 22.9573 51.1162 23.128C51.1376 23.192 51.1696 23.2133 51.2122 23.192C51.2762 23.1707 51.3189 23.2027 51.3402 23.288L51.5322 23.192H51.5642C51.5856 23.192 51.5962 23.2133 51.5962 23.256V23.48C51.5962 23.608 51.6282 23.6827 51.6922 23.704C51.5856 23.768 51.5002 23.8533 51.4362 23.96L51.5322 24.056V24.184C51.5322 24.3333 51.5109 24.4187 51.4682 24.44C51.4256 24.4613 51.3829 24.5253 51.3402 24.632C51.4256 24.632 51.4789 24.6853 51.5002 24.792C51.5216 24.8987 51.5536 24.9627 51.5962 24.984L51.2762 25.144C51.3616 25.2507 51.4256 25.3467 51.4682 25.432C51.5109 25.496 51.5536 25.5493 51.5962 25.592C51.5962 25.592 51.5749 25.6773 51.5322 25.848V25.912L51.8522 25.592C51.8309 25.7627 51.7456 25.9013 51.5962 26.008H51.7882L51.5322 26.52C51.5749 26.5627 51.6282 26.6053 51.6922 26.648C51.7562 26.6693 51.7882 26.7333 51.7882 26.84L51.6922 27.096H51.7882C51.7882 27.16 51.7349 27.2347 51.6282 27.32C51.5429 27.4053 51.5002 27.4693 51.5002 27.512C51.5002 27.5333 51.5109 27.544 51.5322 27.544H51.5962V27.608L51.6282 27.576C51.6282 27.576 51.5962 27.608 51.5322 27.672C51.4896 27.736 51.4256 27.8107 51.3402 27.896C51.2762 27.9813 51.2016 28.056 51.1162 28.12C51.0522 28.184 50.9989 28.216 50.9562 28.216H50.9242V28.056C50.9029 28.0987 50.8602 28.12 50.7962 28.12C50.7536 28.1413 50.7109 28.1733 50.6682 28.216C50.6256 28.1733 50.5936 28.1307 50.5722 28.088C50.5722 28.0453 50.5509 28.0027 50.5082 27.96C50.4442 28.024 50.3909 28.0667 50.3482 28.088C50.3269 28.1093 50.2629 28.12 50.1562 28.12L50.0922 28.056L49.8362 28.216V28.12C49.8362 28.0773 49.8362 28.0347 49.8362 27.992C49.8576 27.9493 49.9109 27.9067 49.9962 27.864L49.8362 27.704ZM40.3642 22.136C40.4069 22.1787 40.4389 22.264 40.4602 22.392C40.5029 22.4987 40.5242 22.5627 40.5242 22.584H40.6522C40.8869 22.5413 41.1536 22.5093 41.4522 22.488C41.7722 22.4667 42.0816 22.4347 42.3802 22.392L43.4362 22.296L43.5642 22.136C43.6709 21.1547 43.8202 20.2907 44.0122 19.544C44.2042 18.776 44.3002 17.976 44.3002 17.144V16.856H44.1722C44.1082 16.856 44.0229 16.8773 43.9162 16.92C43.8096 16.9627 43.7456 16.9947 43.7242 17.016L43.5642 17.304L43.2762 17.432C43.2336 17.4533 43.1909 17.4747 43.1482 17.496C43.1056 17.5173 43.0629 17.5493 43.0202 17.592L42.7002 17.88C42.6149 17.9653 42.4869 18.072 42.3162 18.2C42.1456 18.3067 42.0282 18.392 41.9642 18.456L41.8042 18.616C41.7189 18.7227 41.6656 18.8187 41.6442 18.904C41.6442 18.9893 41.6442 19.0533 41.6442 19.096C41.6442 19.1387 41.6549 19.1707 41.6762 19.192L41.5482 19.512L41.3882 19.64L41.2602 19.928C41.2602 20.0133 41.2069 20.1627 41.1002 20.376C40.9936 20.5893 40.9402 20.7387 40.9402 20.824L40.4602 21.816L40.3642 22.136ZM44.9082 23.768C44.8229 23.768 44.7802 23.8213 44.7802 23.928C44.7802 24.0133 44.8229 24.056 44.9082 24.056C44.9722 24.056 45.0042 24.0133 45.0042 23.928C45.0042 23.8213 44.9722 23.768 44.9082 23.768ZM51.4362 22.904C51.4789 22.904 51.5002 22.936 51.5002 23C51.5002 23.0427 51.4789 23.064 51.4362 23.064C51.3936 23.064 51.3722 23.0427 51.3722 23C51.3722 22.936 51.3936 22.904 51.4362 22.904ZM49.3562 21.752C49.3136 21.752 49.2922 21.784 49.2922 21.848C49.2922 21.8907 49.3136 21.912 49.3562 21.912C49.3989 21.912 49.4202 21.8907 49.4202 21.848C49.4202 21.784 49.3989 21.752 49.3562 21.752ZM51.6922 25.24C51.7349 25.24 51.7562 25.272 51.7562 25.336C51.7562 25.3787 51.7349 25.4 51.6922 25.4C51.6496 25.4 51.6282 25.3787 51.6282 25.336C51.6282 25.272 51.6496 25.24 51.6922 25.24ZM50.8602 28.568H50.7642C50.8922 28.44 50.9776 28.376 51.0202 28.376L50.8602 28.568ZM55.0202 20.152C55.0416 20.152 55.0522 20.184 55.0522 20.248C55.0522 20.2907 55.0416 20.312 55.0202 20.312C54.9776 20.312 54.9562 20.2907 54.9562 20.248C54.9562 20.184 54.9776 20.152 55.0202 20.152ZM55.1802 20.056C55.1802 20.0987 55.1589 20.12 55.1162 20.12L55.0842 20.056C55.1056 20.0133 55.1162 19.992 55.1162 19.992C55.1589 19.992 55.1802 20.0133 55.1802 20.056ZM51.2762 23.448C51.2762 23.4267 51.2549 23.416 51.2122 23.416C51.1909 23.416 51.1802 23.4267 51.1802 23.448L51.2122 23.512C51.2549 23.512 51.2762 23.4907 51.2762 23.448ZM67.5077 27.256V27.224C67.5077 27.1387 67.5611 27.064 67.6677 27V26.968V26.744C67.6677 26.6587 67.6464 26.6053 67.6037 26.584C67.4971 26.584 67.3797 26.616 67.2517 26.68H67.2197C67.2197 26.616 67.2624 26.4987 67.3477 26.328C67.3477 26.2853 67.3264 26.2107 67.2837 26.104C67.2624 25.9973 67.2517 25.9227 67.2517 25.88C67.2517 25.2613 67.2624 24.792 67.2837 24.472C67.3051 24.1307 67.3264 23.8427 67.3477 23.608C67.3904 23.3733 67.4224 23.1387 67.4437 22.904C67.4864 22.648 67.5077 22.2853 67.5077 21.816L67.6037 21.656C67.6037 21.4853 67.5931 21.3573 67.5717 21.272C67.5717 21.1867 67.5611 21.1333 67.5397 21.112C67.5184 21.0693 67.4971 21.0373 67.4757 21.016C67.4757 20.9947 67.4757 20.952 67.4757 20.888C67.4757 20.8453 67.5184 20.7813 67.6037 20.696C67.5824 20.6747 67.5717 20.6427 67.5717 20.6C67.5717 20.536 67.6037 20.4827 67.6677 20.44C67.7317 20.376 67.7637 20.2907 67.7637 20.184L67.6677 20.12C67.8384 19.7147 67.9344 19.3947 67.9557 19.16C67.9771 18.9253 68.0304 18.68 68.1157 18.424C68.1157 18.104 68.1477 17.8267 68.2117 17.592C68.2757 17.3573 68.3397 17.1333 68.4037 16.92C68.4677 16.7067 68.5317 16.504 68.5957 16.312C68.6597 16.0987 68.6917 15.864 68.6917 15.608C68.6917 15.4587 68.7024 15.2347 68.7237 14.936C68.7451 14.6373 68.7664 14.3493 68.7877 14.072C68.8304 13.7733 68.8837 13.5173 68.9477 13.304C69.0117 13.0907 69.0757 12.984 69.1397 12.984L69.6197 12.888C69.6837 12.9093 69.7477 12.92 69.8117 12.92C69.8331 12.92 69.8437 12.9307 69.8437 12.952H69.8757C69.8544 12.952 69.8864 12.9307 69.9717 12.888C70.1851 12.9733 70.4517 13.048 70.7717 13.112C71.0917 13.1547 71.3371 13.336 71.5077 13.656C71.5077 13.784 71.4757 13.912 71.4117 14.04C71.3691 14.168 71.3477 14.3173 71.3477 14.488C71.3477 14.552 71.3371 14.7013 71.3157 14.936C71.3157 15.1493 71.3051 15.384 71.2837 15.64C71.2624 15.896 71.2411 16.12 71.2197 16.312C71.1984 16.504 71.1771 16.5787 71.1557 16.536V17.464C71.1557 17.5067 71.1237 17.56 71.0597 17.624C71.0171 17.6667 70.9957 17.7627 70.9957 17.912C70.9957 17.9547 70.9957 17.9867 70.9957 18.008C71.0171 18.008 71.0277 18.0187 71.0277 18.04C71.0277 18.1467 70.9851 18.2107 70.8997 18.232C70.8357 18.232 70.8037 18.2533 70.8037 18.296L70.8357 18.328H70.9957C70.9957 18.3707 70.9637 18.4347 70.8997 18.52C70.8571 18.584 70.8357 18.6373 70.8357 18.68C70.8571 18.7013 70.8677 18.7227 70.8677 18.744C70.8677 18.808 70.8144 18.904 70.7077 19.032C70.6224 19.1387 70.5797 19.2987 70.5797 19.512L70.6437 19.608C70.6011 19.6507 70.5691 19.672 70.5477 19.672C70.5264 19.672 70.5157 19.6933 70.5157 19.736C70.5157 19.8 70.5371 19.864 70.5797 19.928C70.5797 20.0347 70.5371 20.0987 70.4517 20.12C70.3877 20.12 70.3557 20.216 70.3557 20.408C70.3557 20.4507 70.4304 20.4933 70.5797 20.536C70.4091 20.6213 70.3237 20.6747 70.3237 20.696C70.3237 20.7173 70.3771 20.7493 70.4837 20.792L70.5797 21.208C70.5157 21.2933 70.4517 21.368 70.3877 21.432C70.3451 21.496 70.3237 21.5707 70.3237 21.656C70.3237 21.6773 70.3344 21.7307 70.3557 21.816C70.3771 21.9013 70.3877 21.9973 70.3877 22.104C70.3877 22.4667 70.3557 22.744 70.2917 22.936C70.2491 23.1067 70.2277 23.2453 70.2277 23.352L70.3237 23.416C70.3237 23.608 70.2704 23.8533 70.1637 24.152C70.0784 24.4293 70.0144 24.5893 69.9717 24.632H69.8757V24.792H70.0677C70.0251 24.8347 69.9717 24.8773 69.9077 24.92C69.8651 24.9413 69.8437 24.9733 69.8437 25.016C69.8437 25.0373 69.8544 25.048 69.8757 25.048H70.1317L69.8757 25.816H70.0677V26.04C70.0677 26.104 70.0677 26.168 70.0677 26.232C70.0677 26.296 70.0891 26.328 70.1317 26.328L70.0677 26.488C70.0677 26.744 70.1211 26.9253 70.2277 27.032C70.3344 27.1387 70.3877 27.2987 70.3877 27.512L70.3237 27.576L70.4837 27.768C70.4837 27.8107 70.4517 27.864 70.3877 27.928V27.832L70.1317 28.024H70.4837C70.4411 28.0667 70.3771 28.12 70.2917 28.184C70.2277 28.248 70.1744 28.28 70.1317 28.28C70.0891 28.28 70.0357 28.248 69.9717 28.184C69.7157 28.184 69.5237 28.2373 69.3957 28.344C69.2677 28.4507 69.1184 28.536 68.9477 28.6C68.6491 28.6 68.4037 28.5467 68.2117 28.44C68.0197 28.3333 67.8704 28.2053 67.7637 28.056C67.6571 27.928 67.5824 27.7893 67.5397 27.64C67.5184 27.4907 67.5077 27.3627 67.5077 27.256ZM57.4597 20.856C57.4597 20.792 57.4704 20.6747 57.4917 20.504C57.5131 20.3333 57.5451 20.152 57.5877 19.96C57.6517 19.7467 57.7157 19.544 57.7797 19.352C57.8651 19.1387 57.9717 18.968 58.0997 18.84C58.1424 18.7547 58.1957 18.6373 58.2597 18.488C58.3237 18.3173 58.3984 18.1573 58.4837 18.008C58.5691 17.8373 58.6437 17.688 58.7077 17.56C58.7717 17.4107 58.8251 17.3147 58.8677 17.272L59.1877 17.144H59.9557C60.0411 17.144 60.1904 17.1973 60.4037 17.304C60.6384 17.3893 60.7984 17.432 60.8837 17.432H61.8117L62.8997 17.752C62.9637 17.752 63.0491 17.7733 63.1557 17.816C63.2624 17.8587 63.3264 17.8907 63.3477 17.912L64.1477 18.232L65.0757 19.16V19.448L64.9157 19.608V20.696L64.5957 21.464L64.4357 21.784C64.3717 21.8693 64.2757 21.976 64.1477 22.104C64.0197 22.2107 63.8917 22.328 63.7637 22.456C63.6357 22.584 63.5184 22.7013 63.4117 22.808C63.3051 22.9147 63.2411 22.9893 63.2197 23.032C63.1344 23.1173 62.9424 23.224 62.6437 23.352C62.3664 23.4587 62.1957 23.5547 62.1317 23.64L61.8757 23.736C61.6624 23.7787 61.5344 23.8 61.4917 23.8H61.2037L60.5637 23.96C60.5211 23.96 60.4251 23.9387 60.2757 23.896C60.1477 23.832 60.0091 23.7787 59.8597 23.736C59.7104 23.672 59.5611 23.6187 59.4117 23.576C59.2837 23.512 59.2091 23.48 59.1877 23.48L58.5477 23.32L58.2597 23.192L57.6197 22.552L57.4597 22.232V20.856ZM61.2037 19.16L61.0437 19.288C61.0437 19.352 61.0117 19.448 60.9477 19.576C60.8837 19.704 60.8091 19.832 60.7237 19.96C60.6597 20.0667 60.5957 20.1733 60.5317 20.28C60.4677 20.3653 60.4251 20.4187 60.4037 20.44C60.3397 20.5467 60.2757 20.6853 60.2117 20.856C60.1477 21.0053 60.1157 21.1547 60.1157 21.304V22.392H61.0437C61.4064 22.392 61.6837 22.3067 61.8757 22.136C62.0891 21.944 62.3237 21.72 62.5797 21.464L62.7717 21.048C62.8571 20.8133 62.9531 20.6427 63.0597 20.536V20.376L62.8997 20.088C62.5797 19.768 62.3237 19.512 62.1317 19.32C61.9611 19.1067 61.7477 19 61.4917 19L61.2037 19.16ZM69.7157 28.44V28.504C69.7157 28.568 69.6411 28.6 69.4917 28.6H69.3957C69.5024 28.4933 69.5877 28.44 69.6517 28.44H69.7157ZM67.4437 26.136H67.5077V25.976C67.5077 25.8693 67.4864 25.816 67.4437 25.816V26.136ZM67.5077 26.392H67.6037V26.328H67.5077V26.392ZM67.5077 26.744V26.904L67.4437 26.84L67.5077 26.744ZM82.3185 33.752C82.1051 33.6667 81.9238 33.5707 81.7745 33.464C81.6465 33.3573 81.5398 33.304 81.4545 33.304L80.8785 33.144L80.6225 32.888C80.6225 32.8453 80.6011 32.7707 80.5585 32.664C80.5158 32.5573 80.4838 32.4933 80.4625 32.472L80.6225 32.184H80.4625L80.3345 31.896V31.768L80.6225 31.48L80.4625 31.352L81.3265 30.488H80.9105L81.3265 30.232L81.4545 29.944L81.3265 29.816L81.4545 29.528L81.5825 29.4H81.7105C81.7105 29.336 81.7638 29.24 81.8705 29.112C81.9771 28.984 82.0305 28.888 82.0305 28.824V28.568C82.0731 28.5253 82.1051 28.4507 82.1265 28.344C82.1478 28.2373 82.1585 28.1627 82.1585 28.12L82.2865 27.864V27.288L82.4145 27.416C82.4145 27.352 82.4678 27.2667 82.5745 27.16C82.6811 27.0533 82.7345 26.968 82.7345 26.904L83.1185 26.328V25.88C83.1398 25.816 83.2038 25.6773 83.3105 25.464C83.4171 25.2507 83.5345 25.0267 83.6625 24.792C83.7905 24.536 83.9078 24.3013 84.0145 24.088C84.1425 23.8747 84.2278 23.736 84.2705 23.672C84.2705 23.544 84.3131 23.3947 84.3985 23.224C84.4838 23.032 84.5798 22.8507 84.6865 22.68C84.7931 22.488 84.8891 22.3067 84.9745 22.136C85.0598 21.9653 85.1025 21.8267 85.1025 21.72L85.2305 21.304L85.3585 21.144H85.8065C85.8491 21.144 85.9131 21.2187 85.9985 21.368C86.1051 21.496 86.2331 21.592 86.3825 21.656C86.5531 21.7627 86.7238 21.816 86.8945 21.816C87.0865 21.816 87.2038 21.8373 87.2465 21.88L87.6625 22.296V23.16C87.6625 23.224 87.6411 23.32 87.5985 23.448C87.5558 23.5547 87.5345 23.64 87.5345 23.704C87.5345 23.7467 87.5025 23.8213 87.4385 23.928C87.3745 24.0133 87.3105 24.12 87.2465 24.248C87.1825 24.376 87.1185 24.4933 87.0545 24.6C86.9905 24.7067 86.9585 24.7813 86.9585 24.824V25.112C86.9798 25.1547 87.0438 25.2187 87.1505 25.304C87.2571 25.368 87.3745 25.4533 87.5025 25.56C87.6305 25.6453 87.7478 25.7307 87.8545 25.816C87.9825 25.88 88.0678 25.9227 88.1105 25.944C88.2385 25.944 88.3558 25.9973 88.4625 26.104C88.5905 26.1893 88.7078 26.296 88.8145 26.424C88.9425 26.552 89.0598 26.6693 89.1665 26.776C89.2731 26.8613 89.3798 26.904 89.4865 26.904C89.6785 27.096 89.9025 27.2987 90.1585 27.512C90.4145 27.7467 90.6491 27.9493 90.8625 28.12C91.0971 28.312 91.2998 28.4613 91.4705 28.568C91.6625 28.696 91.7905 28.76 91.8545 28.76C91.9398 28.76 92.0358 28.824 92.1425 28.952C92.2705 29.08 92.3665 29.144 92.4305 29.144L92.3025 29.272L92.6865 29.72L92.5585 29.848L92.4305 30.136H92.3025L92.1425 30.424H91.0225L90.7345 30.264L90.3185 30.136C90.1265 30.0293 89.9451 29.8907 89.7745 29.72C89.6038 29.5707 89.4545 29.4213 89.3265 29.272L88.9425 29.016C88.6438 28.824 88.3451 28.6107 88.0465 28.376C87.7691 28.1413 87.5025 27.9067 87.2465 27.672C87.0118 27.4587 86.7985 27.2667 86.6065 27.096C86.4358 26.9253 86.3185 26.8187 86.2545 26.776C86.2545 26.9253 86.2225 27.0747 86.1585 27.224C86.0945 27.3947 86.0305 27.544 85.9665 27.672C85.9025 27.8 85.8385 27.896 85.7745 27.96C85.7318 28.0453 85.7105 28.0773 85.7105 28.056L85.2625 28.568L85.1345 29.016C85.0705 29.2507 84.9638 29.4533 84.8145 29.624C84.6651 29.816 84.4945 29.9867 84.3025 30.136L84.4305 30.264L83.8545 31.384L83.7265 31.256V31.8L83.3425 32.792L83.1825 33.08V33.624L82.8945 33.912L82.7345 34.328H82.6065L82.4785 34.168V34.04L82.3185 33.752ZM81.7425 14.616C81.8065 14.488 81.9238 14.4027 82.0945 14.36L83.7265 14.296C83.7905 14.296 83.8865 14.2853 84.0145 14.264C84.1638 14.2427 84.3131 14.2213 84.4625 14.2C84.6118 14.1573 84.7505 14.1253 84.8785 14.104C85.0278 14.0827 85.1238 14.072 85.1665 14.072H85.7745C86.0731 14.072 86.2225 14.008 86.2225 13.88L86.7665 12.408L87.4385 10.264V10.04L87.6305 9.432V9.016L87.7585 8.92C87.8865 8.87733 88.0038 8.856 88.1105 8.856C88.2171 8.83467 88.3558 8.792 88.5265 8.728L88.8465 8.632L89.0705 8.728C89.1985 8.792 89.3371 8.824 89.4865 8.824L90.0945 9.24L90.4785 9.432L90.7025 9.816V10.648C90.7025 10.712 90.6598 10.84 90.5745 11.032C90.4891 11.224 90.3931 11.4373 90.2865 11.672C90.1798 11.9067 90.0838 12.12 89.9985 12.312C89.9131 12.504 89.8705 12.632 89.8705 12.696L89.6785 13.496L89.2625 14.328V14.712L88.4625 15.128C88.4198 15.2347 88.3665 15.3413 88.3025 15.448C88.2598 15.5333 88.2385 15.6293 88.2385 15.736C88.2385 15.8427 88.2065 16.0347 88.1425 16.312C88.0785 16.568 88.0038 16.856 87.9185 17.176C87.8545 17.4747 87.7905 17.7627 87.7265 18.04C87.6625 18.296 87.6305 18.4773 87.6305 18.584C87.6305 18.6907 87.6945 18.8293 87.8225 19C87.9718 19.1493 88.0465 19.2773 88.0465 19.384L87.8545 19.8L87.6305 19.992V19.8H87.4385L87.2465 20.216V20.824C87.1185 20.824 87.0118 20.792 86.9265 20.728L86.7985 20.632L86.6385 20.216H85.5825L85.3905 19.992V18.168C85.4545 17.8907 85.5291 17.592 85.6145 17.272C85.7211 16.9307 85.7958 16.6107 85.8385 16.312H84.9745L84.0465 16.152L83.0545 16.312L82.4785 15.992L81.9665 15.512L81.7425 14.616ZM90.0945 19.256C90.0945 19.1707 90.1478 18.8827 90.2545 18.392C90.3611 17.88 90.4785 17.3253 90.6065 16.728C90.7345 16.1093 90.8625 15.512 90.9905 14.936C91.1398 14.36 91.2465 13.9547 91.3105 13.72C91.3105 13.656 91.3318 13.5707 91.3745 13.464C91.4171 13.3573 91.4598 13.24 91.5025 13.112C91.5451 12.984 91.5878 12.8667 91.6305 12.76C91.6731 12.632 91.6945 12.536 91.6945 12.472C91.6945 12.4293 91.7265 12.312 91.7905 12.12C91.8545 11.9067 91.9185 11.6933 91.9825 11.48C92.0678 11.2453 92.1425 11.032 92.2065 10.84C92.2705 10.6267 92.3025 10.488 92.3025 10.424C92.3025 10.3813 92.3238 10.3067 92.3665 10.2C92.4091 10.0933 92.4518 9.98667 92.4945 9.88L92.7185 9.432L92.9425 9.336C93.0065 9.31467 93.0705 9.29333 93.1345 9.272C93.2198 9.25067 93.2838 9.24 93.3265 9.24L93.6465 9.336C93.8385 9.4 94.0091 9.432 94.1585 9.432C94.2651 9.432 94.4038 9.496 94.5745 9.624C94.7451 9.752 94.8838 9.816 94.9905 9.816L95.3745 10.264V10.424C95.3105 10.5307 95.2358 10.6907 95.1505 10.904C95.0865 11.1173 95.0118 11.3413 94.9265 11.576C94.8625 11.8107 94.7985 12.0347 94.7345 12.248C94.6705 12.4613 94.6065 12.6107 94.5425 12.696L94.3825 12.888V13.912L94.1585 13.496L93.9345 13.72V14.328L94.1585 14.936V15.736L93.9345 15.928H93.7425L93.3265 16.344L93.1345 17.208C93.0918 17.4427 93.0491 17.6667 93.0065 17.88C92.9638 18.0933 92.9425 18.2213 92.9425 18.264V18.648L92.7505 19.256L92.5265 19.48L92.7505 19.672V20.696L93.1345 20.472V20.888L92.9425 21.304L92.7505 21.08L91.7265 22.104H91.3425L90.8945 21.912L90.7345 21.72H90.2865L90.0945 21.496V19.256ZM74.1585 19.768L74.3505 19.672C74.4571 19.5867 74.5531 19.544 74.6385 19.544H75.2465L75.4385 19.48C76.1851 19.3093 76.7718 19.0427 77.1985 18.68C77.6465 18.3173 77.9345 18.0293 78.0625 17.816L78.2545 17.496C78.2545 17.4747 78.2545 17.4213 78.2545 17.336C78.2758 17.2293 78.2971 17.1227 78.3185 17.016C78.3398 16.9093 78.3505 16.8133 78.3505 16.728C78.3718 16.6213 78.3825 16.5573 78.3825 16.536L78.5105 16.024L78.6065 15.32V15.096C78.6065 15.032 78.6278 14.8827 78.6705 14.648C78.7131 14.4133 78.7345 14.2747 78.7345 14.232C78.7131 14.1253 78.6811 14.0293 78.6385 13.944C78.6171 13.8373 78.6065 13.7627 78.6065 13.72C78.6065 13.6133 78.6705 13.56 78.7985 13.56C78.8411 13.56 78.9691 13.5813 79.1825 13.624L79.7585 13.752C79.8438 13.752 79.9398 13.7947 80.0465 13.88C80.1531 13.9653 80.2491 14.0613 80.3345 14.168C80.4411 14.2533 80.5158 14.3387 80.5585 14.424C80.6225 14.488 80.6438 14.5093 80.6225 14.488L80.7185 14.744V16.024L80.6225 16.536V17.016C80.6225 17.08 80.5905 17.2613 80.5265 17.56C80.4838 17.8587 80.4625 18.04 80.4625 18.104L80.3665 18.584L80.1105 18.776L81.9985 18.712C82.0625 18.712 82.1371 18.7333 82.2225 18.776C82.3291 18.7973 82.4251 18.808 82.5105 18.808L82.3505 18.936L82.6065 19.16V19.32L82.3505 19.672L82.1265 19.768C81.9771 19.768 81.7638 19.8107 81.4865 19.896C81.2091 19.9813 80.9211 20.024 80.6225 20.024C80.1531 20.1307 79.6838 20.2693 79.2145 20.44C78.7451 20.6107 78.2865 20.7707 77.8385 20.92C77.4118 21.0693 77.0171 21.1973 76.6545 21.304C76.2918 21.4107 75.9825 21.464 75.7265 21.464L75.2465 21.72H74.9905L74.7665 21.464C74.7665 21.4213 74.7238 21.304 74.6385 21.112C74.5745 20.92 74.5425 20.8027 74.5425 20.76L74.1585 20.152V19.768ZM75.2465 13.976C75.1825 13.976 75.0545 14.008 74.8625 14.072C74.6918 14.1147 74.5851 14.136 74.5425 14.136L74.4145 14.04C74.3291 13.9547 74.2865 13.9013 74.2865 13.88L74.1585 13.624L73.9345 13.4V13.272L73.6785 12.888L73.4225 12.664L73.2945 12.44C73.2945 12.4187 73.2838 12.408 73.2625 12.408C73.2625 12.3867 73.2625 12.3653 73.2625 12.344C73.2625 12.28 73.3691 12.184 73.5825 12.056H74.7665C74.9585 12.056 75.1825 12.024 75.4385 11.96C75.7158 11.8747 76.0145 11.7893 76.3345 11.704C76.6758 11.6187 77.0278 11.544 77.3905 11.48C77.7531 11.3947 78.1265 11.352 78.5105 11.352C78.7451 11.352 79.0225 11.3093 79.3425 11.224C79.6625 11.1387 79.8758 11.096 79.9825 11.096H81.3265C81.4331 11.096 81.5505 11.1493 81.6785 11.256C81.8278 11.3413 81.9025 11.4053 81.9025 11.448V11.576C81.9878 11.576 82.0411 11.5973 82.0625 11.64C82.1051 11.6827 82.1691 11.704 82.2545 11.704L81.8705 12.248L81.5505 12.44H81.3265L81.0705 12.536H80.8145C80.7718 12.536 80.6331 12.5573 80.3985 12.6C80.1851 12.6427 80.0465 12.664 79.9825 12.664H79.7585C79.6945 12.664 79.6091 12.6853 79.5025 12.728C79.4171 12.7707 79.3531 12.792 79.3105 12.792H78.9585L78.8945 12.856C78.8731 12.8773 78.8198 12.888 78.7345 12.888C78.4571 12.888 78.2225 12.9733 78.0305 13.144C77.8598 13.3147 77.6891 13.4 77.5185 13.4L77.4225 13.496C77.4225 13.56 77.4011 13.6667 77.3585 13.816C77.3158 13.944 77.2945 14.0507 77.2945 14.136V14.584C77.2945 14.6267 77.2838 14.7333 77.2625 14.904C77.2411 15.0747 77.2091 15.256 77.1665 15.448C77.1451 15.64 77.1238 15.8213 77.1025 15.992C77.0811 16.1627 77.0705 16.2587 77.0705 16.28V17.496C77.0705 17.7947 76.9958 17.9973 76.8465 18.104C76.6971 18.1893 76.6438 18.232 76.6865 18.232L76.3345 17.976C76.2918 17.976 76.1958 17.9227 76.0465 17.816C75.8971 17.688 75.7478 17.624 75.5985 17.624L75.2465 17.272V14.52V13.976ZM86.4145 20.408C86.5211 20.408 86.5745 20.4827 86.5745 20.632C86.5745 20.76 86.5211 20.824 86.4145 20.824C86.3078 20.824 86.2545 20.76 86.2545 20.632C86.2545 20.4827 86.3078 20.408 86.4145 20.408ZM93.7425 15.32C93.6358 15.32 93.5825 15.3947 93.5825 15.544C93.5825 15.672 93.6358 15.736 93.7425 15.736C93.8491 15.736 93.9025 15.672 93.9025 15.544C93.9025 15.3947 93.8491 15.32 93.7425 15.32ZM88.6545 16.952C88.7611 16.952 88.8145 17.0267 88.8145 17.176C88.8145 17.304 88.7611 17.368 88.6545 17.368C88.5478 17.368 88.4945 17.304 88.4945 17.176C88.4945 17.0267 88.5478 16.952 88.6545 16.952ZM89.0705 13.72C88.9638 13.72 88.9105 13.784 88.9105 13.912C88.9105 14.04 88.9638 14.104 89.0705 14.104C89.1771 14.104 89.2305 14.04 89.2305 13.912C89.2305 13.784 89.1771 13.72 89.0705 13.72ZM93.7425 16.152C93.8491 16.152 93.9025 16.216 93.9025 16.344C93.9025 16.472 93.8491 16.536 93.7425 16.536C93.6358 16.536 93.5825 16.472 93.5825 16.344C93.5825 16.216 93.6358 16.152 93.7425 16.152ZM93.3585 19.096L93.2625 19.544L93.1345 19.48L93.1025 19.064L93.3585 19.096ZM80.7825 31.768L80.6865 31.96L80.8785 31.928L80.9745 31.608L80.7505 31.544L80.7825 31.768ZM93.3585 18.648C93.4651 18.648 93.5185 18.6907 93.5185 18.776C93.5185 18.84 93.4651 18.872 93.3585 18.872C93.2518 18.872 93.1985 18.84 93.1985 18.776C93.1985 18.6907 93.2518 18.648 93.3585 18.648ZM75.4065 14.968V15.032C75.4065 15.0533 75.4065 15.0747 75.4065 15.096C75.4278 15.1173 75.4385 15.1493 75.4385 15.192V15.416L75.5665 15.32V14.968H75.4065ZM92.8465 29.72C92.9318 29.72 92.9745 29.7627 92.9745 29.848C92.9745 29.9333 92.9318 29.976 92.8465 29.976C92.7611 29.976 92.7185 29.9333 92.7185 29.848C92.7185 29.7627 92.7611 29.72 92.8465 29.72ZM81.0385 31.064C80.9531 31.064 80.9105 31.1173 80.9105 31.224C80.9105 31.3093 80.9531 31.352 81.0385 31.352C81.1025 31.352 81.1345 31.3093 81.1345 31.224C81.1345 31.1173 81.1025 31.064 81.0385 31.064ZM81.1665 33.304C81.2518 33.304 81.2945 33.3573 81.2945 33.464C81.2945 33.5493 81.2518 33.592 81.1665 33.592C81.1025 33.592 81.0705 33.5493 81.0705 33.464C81.0705 33.3573 81.1025 33.304 81.1665 33.304ZM82.0945 27.672C82.1585 27.672 82.1905 27.7147 82.1905 27.8C82.1905 27.8853 82.1585 27.928 82.0945 27.928C82.0305 27.928 81.9985 27.8853 81.9985 27.8C81.9985 27.7147 82.0305 27.672 82.0945 27.672ZM82.3505 28.056C82.2865 28.056 82.2545 28.0987 82.2545 28.184C82.2545 28.2693 82.2865 28.312 82.3505 28.312C82.4145 28.312 82.4465 28.2693 82.4465 28.184C82.4465 28.0987 82.4145 28.056 82.3505 28.056ZM88.9745 15.352L88.6545 15.736V15.544L88.9745 15.352ZM81.4545 31.192C81.3905 31.192 81.3585 31.224 81.3585 31.288C81.3585 31.3307 81.3905 31.352 81.4545 31.352C81.5185 31.352 81.5505 31.3307 81.5505 31.288C81.5505 31.224 81.5185 31.192 81.4545 31.192ZM93.1345 20.088L92.9105 20.184L93.1345 19.864V20.088Z" fill="#0EA5E9"/>
<defs>
<clipPath id="clip0_86_737">
<rect width="28.1135" height="26.2393" fill="white" transform="translate(0 11.8987) rotate(-18.1066)"/>
</clipPath>
</defs>
</svg>
